<?xml version="1.0" encoding="UTF-8"?>
<svg version="1.1" xmlns="http://www.w3.org/2000/svg" width="270" height="148">
<path d="M0 0 C89.1 0 178.2 0 270 0 C270 48.84 270 97.68 270 148 C180.9 148 91.8 148 0 148 C0 99.16 0 50.32 0 0 Z " fill="#FDFDFD" transform="translate(0,0)"/>
<path d="M0 0 C3.0625 1 3.0625 1 5 2 C5.66 1.34 6.32 0.68 7 0 C11.56922148 -0.77200992 15.05019219 -0.59362988 19 1.875 C22.71932063 5.82677817 22.08437656 8.7686532 22 14 C22.78375 14.28875 23.5675 14.5775 24.375 14.875 C27 16 27 16 29 18 C30.10443127 22.65438894 30.57674155 25.63988075 28.3125 29.9375 C26 33 26 33 23.75 33.9375 C23.1725 33.958125 22.595 33.97875 22 34 C22.103125 34.825 22.20625 35.65 22.3125 36.5 C21.89128231 41.21763818 20.61376367 44.80718023 17 48 C13.56985487 48.68079216 10.44882717 48.48216613 7 48 C7 47.34 7 46.68 7 46 C4.69 46 2.38 46 0 46 C0 46.66 0 47.32 0 48 C-5.23158464 48.38279888 -8.47170884 47.48612064 -13 45 C-14.75084995 41.73174676 -14.07009615 37.64499979 -14 34 C-14.763125 33.7525 -15.52625 33.505 -16.3125 33.25 C-19.44463315 31.79319388 -20.48717792 31.10526637 -22 28 C-22.37001722 24.22582431 -22.72244634 20.44489268 -21 17 C-20.34 17 -19.68 17 -19 17 C-19 16.34 -19 15.68 -19 15 C-17.35 14.67 -15.7 14.34 -14 14 C-14.08701172 13.11248047 -14.08701172 13.11248047 -14.17578125 12.20703125 C-14.42023005 7.92568508 -14.40732734 5.64383998 -12.0625 1.9375 C-7.93006255 -0.6768992 -4.76498364 -0.68071195 0 0 Z " fill="#438DEF" transform="translate(22,50)"/>
<path d="M0 0 C3.5426931 0.02820616 4.63090304 0.2380644 7.75 2.1875 C11.46932063 6.13927817 10.83437656 9.0811532 10.75 14.3125 C11.53375 14.60125 12.3175 14.89 13.125 15.1875 C15.75 16.3125 15.75 16.3125 17.75 18.3125 C18.85443127 22.96688894 19.32674155 25.95238075 17.0625 30.25 C14.75 33.3125 14.75 33.3125 12.5 34.25 C11.9225 34.270625 11.345 34.29125 10.75 34.3125 C10.853125 35.1375 10.95625 35.9625 11.0625 36.8125 C10.64128231 41.53013818 9.36376367 45.11968023 5.75 48.3125 C2.31985487 48.99329216 -0.80117283 48.79466613 -4.25 48.3125 C-4.25 47.6525 -4.25 46.9925 -4.25 46.3125 C-6.56 46.3125 -8.87 46.3125 -11.25 46.3125 C-11.25 46.9725 -11.25 47.6325 -11.25 48.3125 C-16.48158464 48.69529888 -19.72170884 47.79862064 -24.25 45.3125 C-26.00084995 42.04424676 -25.32009615 37.95749979 -25.25 34.3125 C-26.9 33.6525 -28.55 32.9925 -30.25 32.3125 C-29.755 30.8275 -29.755 30.8275 -29.25 29.3125 C-27.8578125 29.621875 -27.8578125 29.621875 -26.4375 29.9375 C-23.09826598 30.67942966 -23.09826598 30.67942966 -20.25 28.3125 C-20.58 29.6325 -20.91 30.9525 -21.25 32.3125 C-18.94 32.3125 -16.63 32.3125 -14.25 32.3125 C-13.92 31.6525 -13.59 30.9925 -13.25 30.3125 C-13.25 30.9725 -13.25 31.6325 -13.25 32.3125 C-10.28 32.3125 -7.31 32.3125 -4.25 32.3125 C-4.25 32.6425 -4.25 32.9725 -4.25 33.3125 C-6.725 33.8075 -6.725 33.8075 -9.25 34.3125 C-8.90213292 36.28786745 -8.90213292 36.28786745 -8.25 38.3125 C-7.59 38.6425 -6.93 38.9725 -6.25 39.3125 C-5.59 37.9925 -4.93 36.6725 -4.25 35.3125 C-3.59 35.6425 -2.93 35.9725 -2.25 36.3125 C-2.91 37.3025 -3.57 38.2925 -4.25 39.3125 C-3.9378236 41.95882287 -3.9378236 41.95882287 -3.25 44.3125 C1.37097861 44.66829643 1.37097861 44.66829643 5.6875 43.3125 C7.14217695 40.57428456 6.88538785 38.29928939 6.66015625 35.25 C6.75 33.3125 6.75 33.3125 8.75 30.3125 C10.41014616 29.94807767 12.07706064 29.61277117 13.75 29.3125 C14.95272819 26.90704362 14.85071472 25.36253047 14.8125 22.6875 C14.80347656 21.87023437 14.79445312 21.05296875 14.78515625 20.2109375 C14.77355469 19.58445312 14.76195312 18.95796875 14.75 18.3125 C12.77 17.9825 10.79 17.6525 8.75 17.3125 C6.54134205 20.73727649 6.54134205 20.73727649 5.25 24.5625 C5.085 25.14 4.92 25.7175 4.75 26.3125 C3.76 26.6425 2.77 26.9725 1.75 27.3125 C1.42 25.3325 1.09 23.3525 0.75 21.3125 C2.07 21.3125 3.39 21.3125 4.75 21.3125 C4.894375 20.69375 5.03875 20.075 5.1875 19.4375 C5.75 17.3125 5.75 17.3125 6.75 15.3125 C4.44 15.3125 2.13 15.3125 -0.25 15.3125 C-0.25 14.9825 -0.25 14.6525 -0.25 14.3125 C2.39 14.3125 5.03 14.3125 7.75 14.3125 C7.55518374 8.87125666 7.55518374 8.87125666 5.125 4.25 C1.7638415 2.92322691 -0.775796 3.57757223 -4.25 4.3125 C-3.67732628 8.41666164 -2.8231146 11.3797135 -1.25 15.3125 C-4.88 15.3125 -8.51 15.3125 -12.25 15.3125 C-11.47714361 11.44821805 -10.53980123 8.00993019 -9.25 4.3125 C-12.55 3.6525 -15.85 2.9925 -19.25 2.3125 C-19.25 1.9825 -19.25 1.6525 -19.25 1.3125 C-14.58333333 1.3125 -9.91666667 1.3125 -5.25 1.3125 C-3.69014791 -0.24735209 -2.16093902 0.06797656 0 0 Z " fill="#5198F2" transform="translate(33.25,49.6875)"/>
<path d="M0 0 C2.67487776 -0.02413424 5.04334194 0.02672132 7.66015625 0.6015625 C10.48954411 3.63797874 12.02748976 6.48923031 12.66015625 10.6015625 C13.32015625 10.6015625 13.98015625 10.6015625 14.66015625 10.6015625 C14.76328125 9.8796875 14.86640625 9.1578125 14.97265625 8.4140625 C15.72002557 5.35664257 16.94060814 3.21826615 18.66015625 0.6015625 C20.82889877 1.10760242 22.65983252 1.60140063 24.66015625 2.6015625 C25.51857378 5.58184307 25.80083253 8.50668427 25.66015625 11.6015625 C23.91015625 14.1640625 23.91015625 14.1640625 21.66015625 15.6015625 C20.67015625 15.6015625 19.68015625 15.6015625 18.66015625 15.6015625 C17.45000947 18.61962292 17.45000947 18.61962292 17.84765625 22.0390625 C17.66015625 25.6015625 17.66015625 25.6015625 16.09765625 28.0390625 C12.7881599 30.16053452 10.51522387 30.02990335 6.66015625 29.6015625 C6.00015625 28.9415625 5.34015625 28.2815625 4.66015625 27.6015625 C5.03515625 25.1015625 5.03515625 25.1015625 5.66015625 22.6015625 C5.66015625 21.9415625 5.66015625 21.2815625 5.66015625 20.6015625 C5.00015625 21.5915625 4.34015625 22.5815625 3.66015625 23.6015625 C2.67015625 23.2715625 1.68015625 22.9415625 0.66015625 22.6015625 C-0.08984375 20.6015625 -0.08984375 20.6015625 -0.33984375 18.6015625 C-0.00984375 18.2715625 0.32015625 17.9415625 0.66015625 17.6015625 C0.06203125 17.5809375 -0.53609375 17.5603125 -1.15234375 17.5390625 C-3.33984375 16.6015625 -3.33984375 16.6015625 -5.15234375 13.3515625 C-6.33261449 9.62439174 -6.69421316 8.18096737 -5.33984375 4.6015625 C-3.76997379 1.9490236 -3.03672969 0.7807285 0 0 Z " fill="#3683F1" transform="translate(23.33984375,65.3984375)"/>
<path d="M0 0 C2 1.375 2 1.375 3 3 C3 3.66 3 4.32 3 5 C3.66 5 4.32 5 5 5 C5.33 5.66 5.66 6.32 6 7 C6.33 4.69 6.66 2.38 7 0 C8.65 0 10.3 0 12 0 C12.33 0.66 12.66 1.32 13 2 C13.33 1.34 13.66 0.68 14 0 C15.65 0 17.3 0 19 0 C19 0.99 19 1.98 19 3 C17.02 3.33 15.04 3.66 13 4 C12.67 8.95 12.34 13.9 12 19 C10.35 18.67 8.7 18.34 7 18 C6.67 15.69 6.34 13.38 6 11 C4.68 11.33 3.36 11.66 2 12 C2.66 12.66 3.32 13.32 4 14 C4 15.32 4 16.64 4 18 C2.22925083 18.02705729 0.45838289 18.04642195 -1.3125 18.0625 C-2.29863281 18.07410156 -3.28476563 18.08570312 -4.30078125 18.09765625 C-7.45736995 17.98345261 -9.3412161 17.60998509 -11.6875 15.4375 C-13.55414826 11.97086752 -13.78148487 8.7947102 -13 5 C-9.33533477 -0.49699784 -6.15355558 -0.79400717 0 0 Z " fill="#52595E" transform="translate(142,68)"/>
<path d="M0 0 C2.475 0.495 2.475 0.495 5 1 C5.66 0.67 6.32 0.34 7 0 C10.57953446 -0.39772605 12.60701525 -0.18794923 15.875 1.375 C18.68437507 4.8454045 18.71920905 7.27368289 18.48046875 11.6484375 C18 14 18 14 15.9375 16.625 C12.3711744 18.2943439 9.89649216 18.3675936 6 18 C5.34 17.67 4.68 17.34 4 17 C4 19.64 4 22.28 4 25 C2.68 25 1.36 25 0 25 C0 16.75 0 8.5 0 0 Z " fill="#50565A" transform="translate(108,68)"/>
<path d="M0 0 C12.32142857 -0.26785714 12.32142857 -0.26785714 16 2 C16.33 1.34 16.66 0.68 17 0 C23.625 -0.25 23.625 -0.25 27 2 C27.22107787 4.7885289 27.28107535 7.34653181 27.1875 10.125 C27.16719727 11.25615234 27.16719727 11.25615234 27.14648438 12.41015625 C27.11109985 14.27374127 27.05729167 16.13695978 27 18 C25.68 18 24.36 18 23 18 C22.67 13.38 22.34 8.76 22 4 C20.35 4 18.7 4 17 4 C15.64908472 6.70183055 15.66141942 9.11808206 15.4375 12.125 C15.35371094 13.22070312 15.26992187 14.31640625 15.18359375 15.4453125 C15.12300781 16.28835937 15.06242188 17.13140625 15 18 C14.01 18 13.02 18 12 18 C11.67 13.71 11.34 9.42 11 5 C9.35 4.67 7.7 4.34 6 4 C4.64908472 6.70183055 4.66141942 9.11808206 4.4375 12.125 C4.35371094 13.22070312 4.26992187 14.31640625 4.18359375 15.4453125 C4.12300781 16.28835937 4.06242188 17.13140625 4 18 C2.68 18 1.36 18 0 18 C0 12.06 0 6.12 0 0 Z " fill="#393F44" transform="translate(240,68)"/>
<path d="M0 0 C3.5426931 0.02820616 4.63090304 0.2380644 7.75 2.1875 C11.46932063 6.13927817 10.83437656 9.0811532 10.75 14.3125 C11.53375 14.60125 12.3175 14.89 13.125 15.1875 C15.75 16.3125 15.75 16.3125 17.75 18.3125 C18.31520003 20.96787372 18.48788198 23.60394713 18.75 26.3125 C17.76 26.8075 17.76 26.8075 16.75 27.3125 C16.09 24.3425 15.43 21.3725 14.75 18.3125 C12.77 17.9825 10.79 17.6525 8.75 17.3125 C6.54134205 20.73727649 6.54134205 20.73727649 5.25 24.5625 C5.085 25.14 4.92 25.7175 4.75 26.3125 C3.76 26.6425 2.77 26.9725 1.75 27.3125 C1.42 25.3325 1.09 23.3525 0.75 21.3125 C2.07 21.3125 3.39 21.3125 4.75 21.3125 C4.9665625 20.384375 4.9665625 20.384375 5.1875 19.4375 C5.75 17.3125 5.75 17.3125 6.75 15.3125 C4.44 15.3125 2.13 15.3125 -0.25 15.3125 C-0.25 14.9825 -0.25 14.6525 -0.25 14.3125 C2.39 14.3125 5.03 14.3125 7.75 14.3125 C7.55518374 8.87125666 7.55518374 8.87125666 5.125 4.25 C1.7638415 2.92322691 -0.775796 3.57757223 -4.25 4.3125 C-3.67732628 8.41666164 -2.8231146 11.3797135 -1.25 15.3125 C-4.88 15.3125 -8.51 15.3125 -12.25 15.3125 C-11.47714361 11.44821805 -10.53980123 8.00993019 -9.25 4.3125 C-12.55 3.6525 -15.85 2.9925 -19.25 2.3125 C-19.25 1.9825 -19.25 1.6525 -19.25 1.3125 C-14.58333333 1.3125 -9.91666667 1.3125 -5.25 1.3125 C-3.69014791 -0.24735209 -2.16093902 0.06797656 0 0 Z " fill="#418BEB" transform="translate(33.25,49.6875)"/>
<path d="M0 0 C1.32 0 2.64 0 4 0 C4.33 3.3 4.66 6.6 5 10 C5.61875 9.34 6.2375 8.68 6.875 8 C9 6 9 6 11 6 C11.433125 5.071875 11.433125 5.071875 11.875 4.125 C13 2 13 2 15 0 C17.625 -0.125 17.625 -0.125 20 0 C20 0.66 20 1.32 20 2 C18.01739574 3.68732277 16.0167658 5.35366057 14 7 C13.67 7.66 13.34 8.32 13 9 C12.34 9 11.68 9 11 9 C10.67 9.99 10.34 10.98 10 12 C9.34 12 8.68 12 8 12 C11.7547235 16.45805787 15.40872887 20.38263487 20 24 C20 24.66 20 25.32 20 26 C15.3144268 25.52891903 13.16873416 23.70898637 9.8125 20.5 C6.6654128 17.38154906 6.6654128 17.38154906 3 15 C3 18.63 3 22.26 3 26 C2.01 26 1.02 26 0 26 C0 17.42 0 8.84 0 0 Z " fill="#515458" transform="translate(165,60)"/>
<path d="M0 0 C7.0353699 0.0104693 7.0353699 0.0104693 9.8125 2.62890625 C10.83744968 6.33449354 10.5209894 8.84460415 9.625 12.56640625 C7.625 15.56640625 7.625 15.56640625 5.3828125 16.0703125 C2.68176277 16.13042488 0.27793971 16.09613978 -2.375 15.56640625 C-5.0625 12.87890625 -5.0625 12.87890625 -6.375 9.56640625 C-6.26961379 5.14018549 -4.55439544 1.08616339 0 0 Z " fill="#F7FAF8" transform="translate(23.375,65.43359375)"/>
<path d="M0 0 C0.99 0.66 1.98 1.32 3 2 C3 2.99 3 3.98 3 5 C2.484375 4.835 1.96875 4.67 1.4375 4.5 C-2.87709151 3.61495559 -6.82126148 3.60708716 -11 5 C-11 6.65 -11 8.3 -11 10 C-10.26394531 10.18175781 -9.52789062 10.36351563 -8.76953125 10.55078125 C2.17532468 13.37012987 2.17532468 13.37012987 5 16 C5.625 18.9375 5.625 18.9375 5 22 C3.25 24.375 3.25 24.375 0 26 C-10.32946636 27.1136891 -10.32946636 27.1136891 -15 24 C-14.505 22.515 -14.505 22.515 -14 21 C-13.01 21.33 -12.02 21.66 -11 22 C-9.27204648 22.06802967 -7.54164635 22.08495645 -5.8125 22.0625 C-4.91144531 22.05347656 -4.01039062 22.04445313 -3.08203125 22.03515625 C-2.05142578 22.01775391 -2.05142578 22.01775391 -1 22 C-0.34 20.35 0.32 18.7 1 17 C0.40832031 16.89042969 -0.18335937 16.78085938 -0.79296875 16.66796875 C-5.75430077 15.67246493 -10.28271458 14.71728542 -14 11 C-14.28309837 8.0746502 -14.48539109 5.84382075 -14 3 C-10.30460469 -0.81460161 -5.02310806 -0.72430584 0 0 Z " fill="#3B3F44" transform="translate(78,60)"/>
<path d="M0 0 C0.78246094 -0.01417969 1.56492188 -0.02835937 2.37109375 -0.04296875 C4.5625 0.1875 4.5625 0.1875 7.5625 2.1875 C7.78357787 4.9760289 7.84357535 7.53403181 7.75 10.3125 C7.73646484 11.06660156 7.72292969 11.82070312 7.70898438 12.59765625 C7.67359985 14.46124127 7.61979167 16.32445978 7.5625 18.1875 C5.43777424 18.24136629 3.31266348 18.28023071 1.1875 18.3125 C0.00414062 18.33570312 -1.17921875 18.35890625 -2.3984375 18.3828125 C-5.4375 18.1875 -5.4375 18.1875 -7.4375 16.1875 C-7.75 13.1875 -7.75 13.1875 -7.4375 10.1875 C-4.23369983 8.05163322 -3.41810033 7.95617825 0.25 8.0625 C1.46236328 8.08957031 1.46236328 8.08957031 2.69921875 8.1171875 C3.62154297 8.15199219 3.62154297 8.15199219 4.5625 8.1875 C3.9025 6.8675 3.2425 5.5475 2.5625 4.1875 C-0.4075 4.1875 -3.3775 4.1875 -6.4375 4.1875 C-6.4375 3.1975 -6.4375 2.2075 -6.4375 1.1875 C-4.0978331 0.01766655 -2.60358473 0.0213759 0 0 Z " fill="#474C51" transform="translate(195.4375,67.8125)"/>
<path d="M0 0 C1.65 0 3.3 0 5 0 C5.33 0.66 5.66 1.32 6 2 C6.33 1.34 6.66 0.68 7 0 C8.65 0 10.3 0 12 0 C12 0.99 12 1.98 12 3 C10.02 3.33 8.04 3.66 6 4 C5.67 8.95 5.34 13.9 5 19 C3.35 18.67 1.7 18.34 0 18 C-0.33 15.69 -0.66 13.38 -1 11 C-2.32 11.33 -3.64 11.66 -5 12 C-4.34 12.66 -3.68 13.32 -3 14 C-3 15.32 -3 16.64 -3 18 C-3.66 17.67 -4.32 17.34 -5 17 C-4.67 16.34 -4.34 15.68 -4 15 C-4.62648437 15.08378906 -5.25296875 15.16757813 -5.8984375 15.25390625 C-6.71570313 15.35574219 -7.53296875 15.45757812 -8.375 15.5625 C-9.18710938 15.66691406 -9.99921875 15.77132812 -10.8359375 15.87890625 C-13 16 -13 16 -15 15 C-15.33 13.35 -15.66 11.7 -16 10 C-11.71 10 -7.42 10 -3 10 C-3 8.35 -3 6.7 -3 5 C-2.34 5.66 -1.68 6.32 -1 7 C-0.67 4.69 -0.34 2.38 0 0 Z " fill="#D8DBDD" transform="translate(149,68)"/>
<path d="M0 0 C1.43583001 -0.10836453 2.8740202 -0.18576167 4.3125 -0.25 C5.51326172 -0.31960937 5.51326172 -0.31960937 6.73828125 -0.390625 C9 0 9 0 10.78125 1.5625 C12.45105915 4.90211829 12.29062696 7.53742947 12.1875 11.25 C12.16042969 12.51328125 12.13335937 13.7765625 12.10546875 15.078125 C12.07066406 16.04234375 12.03585938 17.0065625 12 18 C10.06280622 18.05406122 8.12518079 18.09282025 6.1875 18.125 C5.10855469 18.14820312 4.02960938 18.17140625 2.91796875 18.1953125 C0 18 0 18 -3 16 C-3.3125 13 -3.3125 13 -3 10 C-1 8 -1 8 1.1640625 7.8046875 C2.38222656 7.83949219 2.38222656 7.83949219 3.625 7.875 C4.85089844 7.90207031 4.85089844 7.90207031 6.1015625 7.9296875 C7.04128906 7.96449219 7.04128906 7.96449219 8 8 C7.67 6.68 7.34 5.36 7 4 C4.03 4 1.06 4 -2 4 C-2 3.34 -2 2.68 -2 2 C-1.34 2 -0.68 2 0 2 C0 1.34 0 0.68 0 0 Z " fill="#32393E" transform="translate(223,68)"/>
<path d="M0 0 C1.32 0 2.64 0 4 0 C4.33 4.62 4.66 9.24 5 14 C6.65 14 8.3 14 10 14 C11.87824891 12.12175109 11.39102397 8.96064724 11.5625 6.4375 C11.64628906 5.23996094 11.73007813 4.04242188 11.81640625 2.80859375 C11.87699219 1.88175781 11.93757813 0.95492187 12 0 C13.32 0 14.64 0 16 0 C16 5.94 16 11.88 16 18 C3.60125448 19.47311828 3.60125448 19.47311828 1.09375 17.5 C-0.4037009 14.07725508 -0.32237105 10.90880962 -0.1875 7.25 C-0.17396484 6.55261719 -0.16042969 5.85523437 -0.14648438 5.13671875 C-0.1112945 3.42414459 -0.05749155 1.71197059 0 0 Z " fill="#464C52" transform="translate(87,68)"/>
<path d="M0 0 C0.33 0.66 0.66 1.32 1 2 C0.67 2.66 0.34 3.32 0 4 C2.31 4 4.62 4 7 4 C7.33 3.34 7.66 2.68 8 2 C8 2.66 8 3.32 8 4 C10.97 4 13.94 4 17 4 C17 4.33 17 4.66 17 5 C15.35 5.33 13.7 5.66 12 6 C12.34786708 7.97536745 12.34786708 7.97536745 13 10 C13.66 10.33 14.32 10.66 15 11 C15.66 9.68 16.32 8.36 17 7 C17.66 7.33 18.32 7.66 19 8 C17.68 10.64 16.36 13.28 15 16 C14.01 16 13.02 16 12 16 C9 9.375 9 9.375 9 6 C5.37 6 1.74 6 -2 6 C-0.59627944 12.09368766 -0.59627944 12.09368766 3 17 C6.10197397 17.80946422 6.10197397 17.80946422 9 18 C9 18.33 9 18.66 9 19 C4.54719212 19.17461992 0.91405938 19.30238787 -3 17 C-4.62484302 13.62532604 -4.07068911 9.67583367 -4 6 C-6.475 5.01 -6.475 5.01 -9 4 C-8.67 3.01 -8.34 2.02 -8 1 C-6.576875 1.309375 -6.576875 1.309375 -5.125 1.625 C-4.09375 1.74875 -3.0625 1.8725 -2 2 C-1.34 1.34 -0.68 0.68 0 0 Z " fill="#3B87ED" transform="translate(12,78)"/>
<path d="M0 0 C3.63 0 7.26 0 11 0 C14.05108798 5.36991485 14.05108798 5.36991485 13.8125 8.3125 C13 10 13 10 11 11 C7.625 11.375 7.625 11.375 4 11 C0.8809965 8.28086874 0.06235971 6.82626618 -0.25 2.6875 C-0.1675 1.800625 -0.085 0.91375 0 0 Z " fill="#F8FAF6" transform="translate(10,84)"/>
<path d="M0 0 C0.66 0.33 1.32 0.66 2 1 C1.5020163 4.73487777 1.12508244 6.81237635 -1 10 C-3.6015625 10.29296875 -3.6015625 10.29296875 -6.625 10.1875 C-8.12933594 10.14689453 -8.12933594 10.14689453 -9.6640625 10.10546875 C-10.43492188 10.07066406 -11.20578125 10.03585938 -12 10 C-12.49046322 4.60490463 -12.49046322 4.60490463 -10.125 1.6875 C-6.36467449 -1.29864085 -4.65009692 -0.96877019 0 0 Z " fill="#D6E7F6" transform="translate(22,53)"/>
<path d="M0 0 C3.3 0 6.6 0 10 0 C10.48076923 6.25 10.48076923 6.25 8.4375 9.4375 C5.12800365 11.55897202 2.85506762 11.42834085 -1 11 C-1.66 10.34 -2.32 9.68 -3 9 C-2.62413022 5.4292371 -1.64328732 3.28657463 0 0 Z " fill="#EEF5F6" transform="translate(31,84)"/>
<path d="M0 0 C0.33 0 0.66 0 1 0 C1.12375 1.0725 1.2475 2.145 1.375 3.25 C2.14363011 6.06261685 2.69576857 6.82178471 5.25390625 8.3203125 C7.81407592 9.32649272 10.36680868 10.20620165 13 11 C13.99 11.33 14.98 11.66 16 12 C15.125 16.875 15.125 16.875 14 18 C12.39836084 18.09919077 10.79220082 18.12969898 9.1875 18.125 C8.31480469 18.12757812 7.44210938 18.13015625 6.54296875 18.1328125 C4.21345785 18.01114834 2.23061985 17.65514709 0 17 C0 16.34 0 15.68 0 15 C0.66 14.67 1.32 14.34 2 14 C1.67 13.01 1.34 12.02 1 11 C1 10.01 1 9.02 1 8 C0.67 7.67 0.34 7.34 0 7 C-0.04092937 4.66702567 -0.04241723 2.33294775 0 0 Z " fill="#E3E5E6" transform="translate(63,65)"/>
<path d="M0 0 C1.9375 1.125 1.9375 1.125 3 3 C3.1875 6.6875 3.1875 6.6875 3 10 C-0.37913601 10.28529291 -3.62978743 10.43346785 -7 10 C-9.1875 7.8125 -9.1875 7.8125 -10 5 C-9.8125 2.25 -9.8125 2.25 -9 0 C-5.85000502 -1.57499749 -3.36459118 -0.70833498 0 0 Z " fill="#E4F2F8" transform="translate(38,53)"/>
<path d="M0 0 C2.16874252 0.50603992 3.99967627 0.99983813 6 2 C6.85865253 4.98109646 7.13506322 7.90435108 7 11 C5.3125 13.625 5.3125 13.625 3 15 C0.9375 15.0625 0.9375 15.0625 -1 14 C-2.8667274 11.61831332 -4.0677772 10.08443519 -3.875 7 C-2.79022484 4.52051392 -1.45586143 2.27873963 0 0 Z " fill="#ECF5F7" transform="translate(42,66)"/>
<path d="M0 0 C1.52033338 2.73660008 2.05543042 4.43183816 1.75 7.5625 C1.03767708 9.87754948 0.17457901 11.88575778 -1 14 C-3.9375 13.625 -3.9375 13.625 -7 13 C-8.72578501 9.54842997 -8.6263812 5.76517051 -8 2 C-4.94160213 -0.81041966 -3.98669064 -1.32889688 0 0 Z " fill="#EEF4F4" transform="translate(11,67)"/>
<path d="M0 0 C3 0.25 3 0.25 5 2.25 C5.31404687 6.48963281 5.32617985 9.61534398 3 13.25 C0.6568787 12.99438677 -1.67843403 12.65729228 -4 12.25 C-5.11445498 10.02109005 -5.16480286 8.71944894 -5.1875 6.25 C-5.20167969 5.54875 -5.21585937 4.8475 -5.23046875 4.125 C-4.80271725 0.64498783 -3.27487943 0.27290662 0 0 Z " fill="#EAEBEC" transform="translate(117,70.75)"/>
<path d="M0 0 C3.63 0 7.26 0 11 0 C11 0.33 11 0.66 11 1 C14.3 1.33 17.6 1.66 21 2 C21 1.34 21 0.68 21 0 C23.97 0 26.94 0 30 0 C29.01 2.64 28.02 5.28 27 8 C25.35 8 23.7 8 22 8 C21.34 6.35 20.68 4.7 20 3 C18.37419034 3.11398665 16.74932843 3.24155659 15.125 3.375 C14.22007813 3.44460937 13.31515625 3.51421875 12.3828125 3.5859375 C9.82058097 3.79568132 9.82058097 3.79568132 8 6 C7.67 5.67 7.34 5.34 7 5 C6.67 5.66 6.34 6.32 6 7 C5.01 7 4.02 7 3 7 C2.814375 5.824375 2.814375 5.824375 2.625 4.625 C2.20882007 1.85942178 2.20882007 1.85942178 0 0 Z " fill="#77A8F1" transform="translate(11,63)"/>
<path d="M0 0 C0.99 0 1.98 0 3 0 C3.33 6.93 3.66 13.86 4 21 C5.32 21.33 6.64 21.66 8 22 C8 23.32 8 24.64 8 26 C3.50946498 26.36409743 3.50946498 26.36409743 1.3503418 24.82104492 C-0.48577569 22.34489226 -0.34370786 20.73704105 -0.29296875 17.67578125 C-0.2784668 16.13374023 -0.2784668 16.13374023 -0.26367188 14.56054688 C-0.23853516 13.48869141 -0.21339844 12.41683594 -0.1875 11.3125 C-0.16719727 9.68731445 -0.16719727 9.68731445 -0.14648438 8.02929688 C-0.11110643 5.35236595 -0.06174189 2.67643162 0 0 Z " fill="#22292D" transform="translate(209,61)"/>
<path d="M0 0 C0.66 0 1.32 0 2 0 C2 0.66 2 1.32 2 2 C2.66 2 3.32 2 4 2 C4 5.96 4 9.92 4 14 C9.57830016 14.12469099 9.57830016 14.12469099 15 13 C14 16 14 16 12 17 C5.52941176 17.35294118 5.52941176 17.35294118 2 15 C2 17.64 2 20.28 2 23 C1.34 23 0.68 23 0 23 C0 15.41 0 7.82 0 0 Z " fill="#272E35" transform="translate(109,69)"/>
<path d="M0 0 C0.99 0.66 1.98 1.32 3 2 C3 2.99 3 3.98 3 5 C2.484375 4.835 1.96875 4.67 1.4375 4.5 C-2.87709151 3.61495559 -6.82126148 3.60708716 -11 5 C-10.67 7.31 -10.34 9.62 -10 12 C-7.03 12.495 -7.03 12.495 -4 13 C-4 13.33 -4 13.66 -4 14 C-10.30818278 14.35706695 -10.30818278 14.35706695 -12.9375 13 C-14.66774938 9.74305999 -14.76937275 6.58542639 -14 3 C-10.30460469 -0.81460161 -5.02310806 -0.72430584 0 0 Z " fill="#464D52" transform="translate(78,60)"/>
<path d="M0 0 C6.75 1.125 6.75 1.125 10 3 C9.360625 3.12375 8.72125 3.2475 8.0625 3.375 C7.381875 3.58125 6.70125 3.7875 6 4 C4.64908472 6.70183055 4.66141942 9.11808206 4.4375 12.125 C4.35371094 13.22070312 4.26992187 14.31640625 4.18359375 15.4453125 C4.12300781 16.28835937 4.06242188 17.13140625 4 18 C2.68 18 1.36 18 0 18 C0 12.06 0 6.12 0 0 Z " fill="#3F444A" transform="translate(240,68)"/>
<path d="M0 0 C0.66 0 1.32 0 2 0 C2 4.62 2 9.24 2 14 C0 11 0 11 0 7 C-2.64 7 -5.28 7 -8 7 C-8 8.98 -8 10.96 -8 13 C-6.68 13.66 -5.36 14.32 -4 15 C-6.875 15.125 -6.875 15.125 -10 15 C-12 13 -12 13 -12.3125 10 C-12.209375 9.01 -12.10625 8.02 -12 7 C-8.79619983 4.86413322 -7.98060033 4.76867825 -4.3125 4.875 C-3.10013672 4.90207031 -3.10013672 4.90207031 -1.86328125 4.9296875 C-0.94095703 4.96449219 -0.94095703 4.96449219 0 5 C0 3.35 0 1.7 0 0 Z " fill="#272B2F" transform="translate(200,71)"/>
<path d="M0 0 C2.64 0.66 5.28 1.32 8 2 C7.01 2.33 6.02 2.66 5 3 C5 11.25 5 19.5 5 28 C4.67 28 4.34 28 4 28 C3.97494385 27.43490723 3.9498877 26.86981445 3.92407227 26.28759766 C3.80820044 23.73316258 3.68543463 21.1791045 3.5625 18.625 C3.52318359 17.73554687 3.48386719 16.84609375 3.44335938 15.9296875 C3.40146484 15.07890625 3.35957031 14.228125 3.31640625 13.3515625 C3.27974854 12.56604004 3.24309082 11.78051758 3.20532227 10.97119141 C3.109109 8.92476504 3.109109 8.92476504 2 7 C1.67 11.95 1.34 16.9 1 22 C-0.65 22 -2.3 22 -4 22 C-2.68 21.67 -1.36 21.34 0 21 C0 15.06 0 9.12 0 3 C-1.32 2.67 -2.64 2.34 -4 2 C-2.68 2 -1.36 2 0 2 C0 1.34 0 0.68 0 0 Z " fill="#E4E8EA" transform="translate(103,65)"/>
<path d="M0 0 C0.99 0 1.98 0 3 0 C3 3.96 3 7.92 3 12 C3.66 12.33 4.32 12.66 5 13 C4.34 13 3.68 13 3 13 C3 16.96 3 20.92 3 25 C2.01 25 1.02 25 0 25 C0 16.75 0 8.5 0 0 Z " fill="#1B2329" transform="translate(165,61)"/>
<path d="M0 0 C1.32 0 2.64 0 4 0 C4 5.94 4 11.88 4 18 C3.01 18 2.02 18 1 18 C1 17.34 1 16.68 1 16 C0.34 16 -0.32 16 -1 16 C-0.67 10.72 -0.34 5.44 0 0 Z " fill="#373D42" transform="translate(99,68)"/>
<path d="M0 0 C1.65 0 3.3 0 5 0 C5 0.99 5 1.98 5 3 C3.02 3.33 1.04 3.66 -1 4 C-1.33 8.62 -1.66 13.24 -2 18 C-2.99 18 -3.98 18 -5 18 C-5 12.39 -5 6.78 -5 1 C-3.68 1.33 -2.36 1.66 -1 2 C-0.67 1.34 -0.34 0.68 0 0 Z " fill="#22272D" transform="translate(156,68)"/>
<path d="M0 0 C3.3 0 6.6 0 10 0 C10.33 0.99 10.66 1.98 11 3 C11.66 3 12.32 3 13 3 C13 4.32 13 5.64 13 7 C12.34 7 11.68 7 11 7 C10.67 8.65 10.34 10.3 10 12 C11.32 12 12.64 12 14 12 C14.33 10.68 14.66 9.36 15 8 C18 11.75 18 11.75 18 14 C14.37 14 10.74 14 7 14 C7.77285639 10.13571805 8.71019877 6.69743019 10 3 C6.7 2.34 3.4 1.68 0 1 C0 0.67 0 0.34 0 0 Z " fill="#5492EE" transform="translate(14,51)"/>
<path d="M0 0 C4.875 0.875 4.875 0.875 6 2 C6.07258946 4.18639453 6.08373783 6.37500389 6.0625 8.5625 C6.05347656 9.76003906 6.04445312 10.95757812 6.03515625 12.19140625 C6.02355469 13.11824219 6.01195312 14.04507813 6 15 C6.99 15.33 7.98 15.66 9 16 C7.68 16.33 6.36 16.66 5 17 C4.92652344 16.06027344 4.92652344 16.06027344 4.8515625 15.1015625 C4.77679688 14.28429687 4.70203125 13.46703125 4.625 12.625 C4.55539063 11.81289062 4.48578125 11.00078125 4.4140625 10.1640625 C4.17107412 7.79665809 4.17107412 7.79665809 2 6 C1.34 6 0.68 6 0 6 C-0.33 9.3 -0.66 12.6 -1 16 C-2.65 16 -4.3 16 -6 16 C-4.68 15.67 -3.36 15.34 -2 15 C-2.02320313 14.16855469 -2.04640625 13.33710937 -2.0703125 12.48046875 C-2.08835938 11.39378906 -2.10640625 10.30710937 -2.125 9.1875 C-2.14820313 8.10855469 -2.17140625 7.02960938 -2.1953125 5.91796875 C-2 3 -2 3 0 0 Z " fill="#DCDEDF" transform="translate(246,71)"/>
<path d="M0 0 C0.33 0.66 0.66 1.32 1 2 C0.67 2.66 0.34 3.32 0 4 C2.31 4 4.62 4 7 4 C7.33 3.34 7.66 2.68 8 2 C8 2.66 8 3.32 8 4 C10.97 4 13.94 4 17 4 C17 4.33 17 4.66 17 5 C15.35 5.33 13.7 5.66 12 6 C12.34786708 7.97536745 12.34786708 7.97536745 13 10 C13.66 10.33 14.32 10.66 15 11 C15.66 9.68 16.32 8.36 17 7 C17.66 7.33 18.32 7.66 19 8 C17.68 10.64 16.36 13.28 15 16 C14.01 16 13.02 16 12 16 C10.68 12.7 9.36 9.4 8 6 C4.7 5.67 1.4 5.34 -2 5 C-1 1 -1 1 0 0 Z " fill="#3481EE" transform="translate(12,78)"/>
<path d="M0 0 C0.66 0 1.32 0 2 0 C2 0.99 2 1.98 2 3 C2.66 2.67 3.32 2.34 4 2 C7.5 1.8125 7.5 1.8125 11 2 C13 4 13 4 13 7 C9.37 7.33 5.74 7.66 2 8 C2 7.01 2 6.02 2 5 C0.05990478 3.29467677 0.05990478 3.29467677 -2 2 C-1.34 2 -0.68 2 0 2 C0 1.34 0 0.68 0 0 Z " fill="#E0E3E6" transform="translate(187,69)"/>
<path d="M0 0 C1.32 0.33 2.64 0.66 4 1 C2.68 1.33 1.36 1.66 0 2 C0.165 2.94875 0.33 3.8975 0.5 4.875 C1 8 1 8 1 10 C1.66 10 2.32 10 3 10 C3 11.65 3 13.3 3 15 C1.1875 14.8125 1.1875 14.8125 -1 14 C-2.8667274 11.61831332 -4.0677772 10.08443519 -3.875 7 C-2.79022484 4.52051392 -1.45586143 2.27873963 0 0 Z " fill="#E1EFF7" transform="translate(42,66)"/>
<path d="M0 0 C0.556875 0.7115625 0.556875 0.7115625 1.125 1.4375 C3.63529133 3.52940944 5.80098664 3.54299809 9 4 C11.375 5.0625 11.375 5.0625 13 6 C12 7 12 7 9.71484375 7.09765625 C8.34005859 7.08025391 8.34005859 7.08025391 6.9375 7.0625 C6.01839844 7.05347656 5.09929688 7.04445313 4.15234375 7.03515625 C3.44207031 7.02355469 2.73179688 7.01195313 2 7 C2 6.34 2 5.68 2 5 C-0.31 5 -2.62 5 -5 5 C-5 5.66 -5 6.32 -5 7 C-6.98 7 -8.96 7 -11 7 C-11.33 6.01 -11.66 5.02 -12 4 C-10.56496445 3.63597631 -9.12683494 3.28413409 -7.6875 2.9375 C-6.88699219 2.74027344 -6.08648437 2.54304688 -5.26171875 2.33984375 C-3 2 -3 2 0 3 C0 2.01 0 1.02 0 0 Z " fill="#69A5F1" transform="translate(27,91)"/>
<path d="M0 0 C1.65 0 3.3 0 5 0 C4.01 0.33 3.02 0.66 2 1 C2 6.61 2 12.22 2 18 C2.99 18.33 3.98 18.66 5 19 C3.35 18.67 1.7 18.34 0 18 C-0.33 15.69 -0.66 13.38 -1 11 C-1.66 11 -2.32 11 -3 11 C-3 9.02 -3 7.04 -3 5 C-2.34 5.66 -1.68 6.32 -1 7 C-0.67 4.69 -0.34 2.38 0 0 Z " fill="#C2C3C4" transform="translate(149,68)"/>
<path d="M0 0 C5.74533107 3.42275042 5.74533107 3.42275042 6.9375 6.125 C7 8 7 8 6 10 C3.69 10 1.38 10 -1 10 C-2.15837626 5.94568308 -1.83691257 3.78187881 0 0 Z " fill="#4F93F1" transform="translate(13,72)"/>
<path d="M0 0 C3.96 0 7.92 0 12 0 C12 0.99 12 1.98 12 3 C12.66 3.33 13.32 3.66 14 4 C13.030625 4.45375 12.06125 4.9075 11.0625 5.375 C7.92920418 6.65786221 7.92920418 6.65786221 7 9 C6.01 8.67 5.02 8.34 4 8 C3.25 6 3.25 6 3 4 C3.33 3.67 3.66 3.34 4 3 C2.68 2.67 1.36 2.34 0 2 C0 1.34 0 0.68 0 0 Z " fill="#5997F4" transform="translate(20,80)"/>
<path d="M0 0 C0.33 0 0.66 0 1 0 C1.16276042 2.01822917 1.32552083 4.03645833 1.48828125 6.0546875 C1.87393036 8.39519216 1.87393036 8.39519216 5 10 C7.28648848 10.24107326 7.28648848 10.24107326 9.6875 10.125 C10.49574219 10.10695313 11.30398437 10.08890625 12.13671875 10.0703125 C12.75160156 10.04710938 13.36648437 10.02390625 14 10 C13.67 10.99 13.34 11.98 13 13 C11.56260487 13.02712066 10.12506137 13.04645067 8.6875 13.0625 C7.48673828 13.07990234 7.48673828 13.07990234 6.26171875 13.09765625 C4 13 4 13 1 12 C-1.69461986 7.95807022 -1.23200889 5.7948504 -1 1 C-0.67 0.67 -0.34 0.34 0 0 Z " fill="#1E252B" transform="translate(131,73)"/>
<path d="M0 0 C0.66 0.33 1.32 0.66 2 1 C2.639375 0.814375 3.27875 0.62875 3.9375 0.4375 C4.618125 0.293125 5.29875 0.14875 6 0 C6.99 0.66 7.98 1.32 9 2 C8.34 3.32 7.68 4.64 7 6 C4.03 6 1.06 6 -2 6 C-1.125 1.125 -1.125 1.125 0 0 Z " fill="#F9FCF6" transform="translate(13,56)"/>
<path d="M0 0 C0.99 0.33 1.98 0.66 3 1 C5.05893621 1.22325814 7.12233653 1.40705759 9.1875 1.5625 C10.27417969 1.64628906 11.36085938 1.73007813 12.48046875 1.81640625 C13.72763672 1.90728516 13.72763672 1.90728516 15 2 C14.67 2.99 14.34 3.98 14 5 C12.06280622 5.05406122 10.12518079 5.09282025 8.1875 5.125 C7.10855469 5.14820312 6.02960938 5.17140625 4.91796875 5.1953125 C2 5 2 5 -1 3 C-0.67 2.01 -0.34 1.02 0 0 Z " fill="#31373D" transform="translate(64,81)"/>
<path d="M0 0 C3.18706942 1.43561686 5.62169105 3.20266329 8.25 5.5 C8.95640625 6.1084375 9.6628125 6.716875 10.390625 7.34375 C12 9 12 9 12 11 C7.34921955 10.71813452 4.79882021 8.52396815 1.35546875 5.66796875 C0 4 0 4 0 0 Z " fill="#32383D" transform="translate(173,75)"/>
<path d="M0 0 C0.99 0.33 1.98 0.66 3 1 C2.67 1.33 2.34 1.66 2 2 C4.64 2 7.28 2 10 2 C10.33 3.65 10.66 5.3 11 7 C8.36 7 5.72 7 3 7 C3 6.01 3 5.02 3 4 C2.01 4 1.02 4 0 4 C0 2.68 0 1.36 0 0 Z " fill="#D2D5D6" transform="translate(220,69)"/>
<path d="M0 0 C0.33 1.65 0.66 3.3 1 5 C-2.3 5 -5.6 5 -9 5 C-8.67 3.68 -8.34 2.36 -8 1 C-5.29120665 -0.35439668 -2.99066732 -0.06501451 0 0 Z " fill="#DCE0E4" transform="translate(142,71)"/>
<path d="M0 0 C2.64 0 5.28 0 8 0 C8 1.32 8 2.64 8 4 C4.77208445 6.1519437 3.71599191 6.20086443 0 6 C0 4.02 0 2.04 0 0 Z " fill="#DADBDB" transform="translate(192,78)"/>
<path d="M0 0 C1.134375 0.020625 2.26875 0.04125 3.4375 0.0625 C2.5625 4.9375 2.5625 4.9375 1.4375 6.0625 C-0.22867115 6.10313832 -1.89638095 6.105221 -3.5625 6.0625 C-3.94468767 4.40635343 -4.27645102 2.73792976 -4.5625 1.0625 C-3.5625 0.0625 -3.5625 0.0625 0 0 Z " fill="#DBDEE0" transform="translate(227.5625,77.9375)"/>
<path d="M0 0 C3.63 0 7.26 0 11 0 C10.34 1.98 9.68 3.96 9 6 C8.34 5.67 7.68 5.34 7 5 C6.67 5.66 6.34 6.32 6 7 C5.01 7 4.02 7 3 7 C2.814375 5.824375 2.814375 5.824375 2.625 4.625 C2.20882007 1.85942178 2.20882007 1.85942178 0 0 Z " fill="#83B2F3" transform="translate(11,63)"/>
<path d="M0 0 C3.63 0 7.26 0 11 0 C14.07692308 5.41538462 14.07692308 5.41538462 13.6875 8.375 C13.460625 8.91125 13.23375 9.4475 13 10 C12.731875 9.38125 12.46375 8.7625 12.1875 8.125 C11.04443152 5.7004767 11.04443152 5.7004767 8 4 C8 3.34 8 2.68 8 2 C5.69 1.67 3.38 1.34 1 1 C1 2.65 1 4.3 1 6 C0.67 6 0.34 6 0 6 C0 4.02 0 2.04 0 0 Z " fill="#C9E0F9" transform="translate(10,84)"/>
<path d="M0 0 C2.64 0 5.28 0 8 0 C7.49770926 4.26947129 7.02851102 8.16836808 5 12 C4.01 12.33 3.02 12.66 2 13 C1.67 11.02 1.34 9.04 1 7 C2.32 7 3.64 7 5 7 C5.144375 6.38125 5.28875 5.7625 5.4375 5.125 C6 3 6 3 7 1 C4.69 1 2.38 1 0 1 C0 0.67 0 0.34 0 0 Z " fill="#297EEF" transform="translate(33,64)"/>
<path d="M0 0 C0.66 0.33 1.32 0.66 2 1 C2.4140625 3.50390625 2.4140625 3.50390625 2.625 6.5625 C2.69976562 7.57441406 2.77453125 8.58632812 2.8515625 9.62890625 C2.90054688 10.41136719 2.94953125 11.19382812 3 12 C2.01 12.66 1.02 13.32 0 14 C0 14.66 0 15.32 0 16 C-1.65 15.67 -3.3 15.34 -5 15 C-4.34 14.67 -3.68 14.34 -3 14 C-0.25719619 9.80512358 0 4.90192366 0 0 Z " fill="#D2E9F8" transform="translate(51,69)"/>
<path d="M0 0 C1.61949011 2.57213134 2.04408751 3.67669159 1.625 6.75 C1.41875 7.4925 1.2125 8.235 1 9 C0.67 8.01 0.34 7.02 0 6 C-3.43793339 6.18129815 -3.43793339 6.18129815 -7 7 C-8.51294288 8.93597032 -8.51294288 8.93597032 -9 11 C-9.38133299 9.0085944 -9.71325582 7.00720923 -10 5 C-9 4 -9 4 -6.93359375 3.90234375 C-5.69802734 3.91974609 -5.69802734 3.91974609 -4.4375 3.9375 C-3.61121094 3.94652344 -2.78492188 3.95554687 -1.93359375 3.96484375 C-1.29550781 3.97644531 -0.65742188 3.98804687 0 4 C0 2.68 0 1.36 0 0 Z " fill="#44474C" transform="translate(231,72)"/>
<path d="M0 0 C0.99 0.33 1.98 0.66 3 1 C2.51917969 1.39832031 2.03835937 1.79664063 1.54296875 2.20703125 C-0.37391825 4.43450247 -0.47741643 5.78834669 -0.6875 8.6875 C-0.75324219 9.49574219 -0.81898437 10.30398437 -0.88671875 11.13671875 C-0.92410156 11.75160156 -0.96148438 12.36648437 -1 13 C-2.32 13 -3.64 13 -5 13 C-4.67 11.35 -4.34 9.7 -4 8 C-3.34 8 -2.68 8 -2 8 C-2 6.68 -2 5.36 -2 4 C-2.66 3.67 -3.32 3.34 -4 3 C-2.1875 1.4375 -2.1875 1.4375 0 0 Z " fill="#83B4F3" transform="translate(29,50)"/>
<path d="M0 0 C0.99 0 1.98 0 3 0 C3.33 2.97 3.66 5.94 4 9 C6.97 9.495 6.97 9.495 10 10 C10 10.33 10 10.66 10 11 C3.69181722 11.35706695 3.69181722 11.35706695 1.0625 10 C-0.67278693 6.73357754 -0.17982715 3.65648548 0 0 Z " fill="#222930" transform="translate(64,63)"/>
<path d="M0 0 C0 0.66 0 1.32 0 2 C2.64 2 5.28 2 8 2 C7.67 2.66 7.34 3.32 7 4 C3.04 4 -0.92 4 -5 4 C-5 3.34 -5 2.68 -5 2 C-5.66 2 -6.32 2 -7 2 C-7 1.34 -7 0.68 -7 0 C-3.86650268 -1.04449911 -3.01031744 -0.93423645 0 0 Z " fill="#EBF4F9" transform="translate(29,96)"/>
<path d="M0 0 C0.22151549 1.79008467 0.42682213 3.58218162 0.625 5.375 C0.74101563 6.37273437 0.85703125 7.37046875 0.9765625 8.3984375 C0.98429688 9.25695312 0.99203125 10.11546875 1 11 C0.34 11.66 -0.32 12.32 -1 13 C-3.13586678 9.79619983 -3.23132175 8.98060033 -3.125 5.3125 C-3.10695312 4.50425781 -3.08890625 3.69601563 -3.0703125 2.86328125 C-3.04710937 2.24839844 -3.02390625 1.63351563 -3 1 C-1 0 -1 0 0 0 Z " fill="#5397F0" transform="translate(3,68)"/>
<path d="M0 0 C0 0.66 0 1.32 0 2 C-1.75 3.5078125 -1.75 3.5078125 -4 5.125 C-4.7425 5.66382812 -5.485 6.20265625 -6.25 6.7578125 C-6.8275 7.16773437 -7.405 7.57765625 -8 8 C-8.6015625 6.140625 -8.6015625 6.140625 -9 4 C-6.34633802 0.3256988 -4.47218731 -0.4969097 0 0 Z " fill="#43484B" transform="translate(185,60)"/>
<path d="M0 0 C0.33 0.66 0.66 1.32 1 2 C0.67 2.66 0.34 3.32 0 4 C2.31 4 4.62 4 7 4 C7.33 3.34 7.66 2.68 8 2 C8 2.66 8 3.32 8 4 C10.97 4 13.94 4 17 4 C17 4.33 17 4.66 17 5 C15.68942607 5.36122881 14.37646376 5.71380311 13.0625 6.0625 C12.33160156 6.25972656 11.60070312 6.45695312 10.84765625 6.66015625 C10.23792969 6.77230469 9.62820312 6.88445312 9 7 C8.67 6.67 8.34 6.34 8 6 C6.31816052 5.76712992 4.6287584 5.58735834 2.9375 5.4375 C2.01839844 5.35371094 1.09929688 5.26992187 0.15234375 5.18359375 C-0.91306641 5.09271484 -0.91306641 5.09271484 -2 5 C-1.125 1.125 -1.125 1.125 0 0 Z " fill="#267BF1" transform="translate(12,78)"/>
<path d="M0 0 C2.625 -0.1875 2.625 -0.1875 5 0 C4.34 1.65 3.68 3.3 3 5 C2.01 5 1.02 5 0 5 C-0.33 8.3 -0.66 11.6 -1 15 C-1.33 15 -1.66 15 -2 15 C-2.05406122 13.06280622 -2.09282025 11.12518079 -2.125 9.1875 C-2.14820313 8.10855469 -2.17140625 7.02960938 -2.1953125 5.91796875 C-2 3 -2 3 0 0 Z " fill="#C6CACD" transform="translate(257,71)"/>
<path d="M0 0 C0.33 0 0.66 0 1 0 C1 4.62 1 9.24 1 14 C0.01 14 -0.98 14 -2 14 C-1.85923685 12.0412957 -1.7122324 10.08303907 -1.5625 8.125 C-1.48128906 7.03445312 -1.40007812 5.94390625 -1.31640625 4.8203125 C-1 2 -1 2 0 0 Z " fill="#262B30" transform="translate(254,72)"/>
<path d="M0 0 C0.33 0 0.66 0 1 0 C1 4.62 1 9.24 1 14 C-1.31 14 -3.62 14 -6 14 C-6.66 13.34 -7.32 12.68 -8 12 C-5.35261084 10.5393715 -4.10551666 10 -1 10 C-0.67 6.7 -0.34 3.4 0 0 Z " fill="#3B4045" transform="translate(202,72)"/>
<path d="M0 0 C6.0546875 -0.1953125 6.0546875 -0.1953125 8 0 C10 2 10 2 10.125 5.125 C10.08375 6.07375 10.0425 7.0225 10 8 C7.03 8 4.06 8 1 8 C1 7.67 1 7.34 1 7 C3.31 7 5.62 7 8 7 C7.67 5.68 7.34 4.36 7 3 C4.69 2.34 2.38 1.68 0 1 C0 0.67 0 0.34 0 0 Z " fill="#23292D" transform="translate(135,69)"/>
<path d="M0 0 C0.33 0 0.66 0 1 0 C1.60356653 7.12208505 1.60356653 7.12208505 -1.0625 11 C-4.64657432 13.44022082 -6.74981621 13.41668469 -11 13 C-11 12.67 -11 12.34 -11 12 C-10.0925 11.7525 -9.185 11.505 -8.25 11.25 C-4.78487956 9.91726137 -3.21396536 8.95195381 -1 6 C-0.19684346 2.85518209 -0.19684346 2.85518209 0 0 Z " fill="#307FE9" transform="translate(42,84)"/>
<path d="M0 0 C0.66 0.99 1.32 1.98 2 3 C1.34 3 0.68 3 0 3 C0 3.66 0 4.32 0 5 C0.66 5 1.32 5 2 5 C2 5.99 2 6.98 2 8 C5.465 7.505 5.465 7.505 9 7 C7 9 7 9 3.5 9.25 C0 9 0 9 -2 7 C-1.6730244 4.38419521 -1.17960932 2.35921863 0 0 Z " fill="#D0E5FB" transform="translate(30,86)"/>
<path d="M0 0 C0.66 0 1.32 0 2 0 C2 4.62 2 9.24 2 14 C0 11 0 11 -0.375 8.9375 C-0.83323057 6.79331795 -0.83323057 6.79331795 -3.0625 5.75 C-3.701875 5.5025 -4.34125 5.255 -5 5 C-3.35 5 -1.7 5 0 5 C0 3.35 0 1.7 0 0 Z " fill="#1B232A" transform="translate(200,71)"/>
<path d="M0 0 C0.99 0.33 1.98 0.66 3 1 C3.32657437 5.68089936 2.75236233 8.18903678 0 12 C-0.66 12.66 -1.32 13.32 -2 14 C-2 13.34 -2 12.68 -2 12 C-2.99 11.67 -3.98 11.34 -5 11 C-4.360625 10.67 -3.72125 10.34 -3.0625 10 C0.0552764 6.97670168 -0.27956936 4.26343276 0 0 Z " fill="#DEE1E2" transform="translate(126,74)"/>
<path d="M0 0 C0.66 0 1.32 0 2 0 C2 0.66 2 1.32 2 2 C2.66 2 3.32 2 4 2 C3.01 5.96 2.02 9.92 1 14 C0.67 14 0.34 14 0 14 C0 9.38 0 4.76 0 0 Z " fill="#1A1F26" transform="translate(109,69)"/>
<path d="M0 0 C2.97 0 5.94 0 9 0 C8.34 1.32 7.68 2.64 7 4 C4.03 4 1.06 4 -2 4 C-2 3.34 -2 2.68 -2 2 C-1.34 2 -0.68 2 0 2 C0 1.34 0 0.68 0 0 Z " fill="#3C4246" transform="translate(223,68)"/>
<path d="M0 0 C3.3 0.33 6.6 0.66 10 1 C10 1.99 10 2.98 10 4 C7.03 4 4.06 4 1 4 C0.67 2.68 0.34 1.36 0 0 Z " fill="#FCFAF5" transform="translate(31,58)"/>
<path d="M0 0 C1.21236328 0.04060547 1.21236328 0.04060547 2.44921875 0.08203125 C3.06410156 0.11683594 3.67898437 0.15164062 4.3125 0.1875 C4.3125 0.5175 4.3125 0.8475 4.3125 1.1875 C3.405 1.31125 2.4975 1.435 1.5625 1.5625 C-1.30837959 2.11459223 -3.27490117 2.57910078 -5.6875 4.1875 C-6.0175 5.1775 -6.3475 6.1675 -6.6875 7.1875 C-7.6775 7.1875 -8.6675 7.1875 -9.6875 7.1875 C-7.45089065 2.19814067 -5.70862614 -0.24820114 0 0 Z " fill="#5295F1" transform="translate(17.6875,49.8125)"/>
<path d="M0 0 C0.598125 0.226875 1.19625 0.45375 1.8125 0.6875 C0.86117187 1.25404297 0.86117187 1.25404297 -0.109375 1.83203125 C-2.80029229 4.23463597 -2.93959029 5.84813955 -3.4375 9.375 C-3.58703125 10.36886719 -3.7365625 11.36273438 -3.890625 12.38671875 C-3.98859375 13.14597656 -4.0865625 13.90523437 -4.1875 14.6875 C-4.5175 14.6875 -4.8475 14.6875 -5.1875 14.6875 C-5.26857583 12.75068839 -5.32672475 10.8129066 -5.375 8.875 C-5.40980469 7.79605469 -5.44460937 6.71710938 -5.48046875 5.60546875 C-5.1875 2.6875 -5.1875 2.6875 -3.8125 0.78125 C-2.1875 -0.3125 -2.1875 -0.3125 0 0 Z " fill="#CFD1D1" transform="translate(159.1875,71.3125)"/>
<path d="M0 0 C1.32 0 2.64 0 4 0 C4.93065133 2.60582371 5.14917407 3.64198224 4.0625 6.25 C3.5365625 7.11625 3.5365625 7.11625 3 8 C2.34 8 1.68 8 1 8 C0 2.25 0 2.25 0 0 Z " fill="#F9FCF4" transform="translate(42,68)"/>
<path d="M0 0 C1.98 1.65 3.96 3.3 6 5 C5.67 6.65 5.34 8.3 5 10 C4.67 9.01 4.34 8.02 4 7 C2.68 7 1.36 7 0 7 C0 4.69 0 2.38 0 0 Z " fill="#EFF3F7" transform="translate(0,78)"/>
<path d="M0 0 C0.33 0 0.66 0 1 0 C1 3.3 1 6.6 1 10 C-3 11 -3 11 -5 10 C-4.34 7.36 -3.68 4.72 -3 2 C-2.67 2 -2.34 2 -2 2 C-2 3.98 -2 5.96 -2 8 C-1.34 8 -0.68 8 0 8 C0 5.36 0 2.72 0 0 Z " fill="#5D6267" transform="translate(125,72)"/>
<path d="M0 0 C0.99 0 1.98 0 3 0 C3.08096803 1.45742463 3.13917774 2.91612807 3.1875 4.375 C3.22230469 5.18710938 3.25710937 5.99921875 3.29296875 6.8359375 C3.19628906 7.55007812 3.09960938 8.26421875 3 9 C2.01 9.66 1.02 10.32 0 11 C0 7.37 0 3.74 0 0 Z " fill="#141B20" transform="translate(165,61)"/>
<path d="M0 0 C3.3 0 6.6 0 10 0 C10.33 0.99 10.66 1.98 11 3 C11.66 3 12.32 3 13 3 C13 4.32 13 5.64 13 7 C12.34 7 11.68 7 11 7 C10.67 6.01 10.34 5.02 10 4 C6.88387743 1.92258495 3.6648732 1.49975544 0 1 C0 0.67 0 0.34 0 0 Z " fill="#2D80EF" transform="translate(14,51)"/>
<path d="M0 0 C0.70125 0.804375 1.4025 1.60875 2.125 2.4375 C5.26291593 5.23433811 6.88758763 5.71308751 11 6 C11 6.33 11 6.66 11 7 C6.45194365 7.17835515 3.1205746 6.99785435 -1 5 C-0.67 3.35 -0.34 1.7 0 0 Z " fill="#438FF1" transform="translate(10,90)"/>
<path d="M0 0 C0.68707555 2.49064888 1 4.37886292 1 7 C1.33 7.99 1.66 8.98 2 10 C1.01 10.33 0.02 10.66 -1 11 C-3 8 -3 8 -2.75 5.5 C-2 3 -2 3 0 0 Z " fill="#DAEAF5" transform="translate(20,67)"/>
<path d="M0 0 C0.66 0.33 1.32 0.66 2 1 C1.67 2.65 1.34 4.3 1 6 C-1.31 6 -3.62 6 -6 6 C-6.33 5.34 -6.66 4.68 -7 4 C-3.535 3.505 -3.535 3.505 0 3 C0 2.01 0 1.02 0 0 Z " fill="#E2EEF9" transform="translate(20,89)"/>
<path d="M0 0 C0.66 0 1.32 0 2 0 C2 1.65 2 3.3 2 5 C3.98 5.66 5.96 6.32 8 7 C8 7.33 8 7.66 8 8 C1.125 7.125 1.125 7.125 0 6 C-0.04080783 4.00041636 -0.04254356 1.99954746 0 0 Z " fill="#1C2125" transform="translate(220,78)"/>
<path d="M0 0 C3.3 0 6.6 0 10 0 C10.33 1.32 10.66 2.64 11 4 C7.30099992 3.11223998 3.65449539 2.05418136 0 1 C0 0.67 0 0.34 0 0 Z " fill="#293035" transform="translate(70,61)"/>
<path d="M0 0 C-1 3 -1 3 -3 4 C-5.3329866 4.04022391 -7.66706666 4.04320247 -10 4 C-10 3.34 -10 2.68 -10 2 C-8.7090864 1.66376204 -7.41723903 1.33110751 -6.125 1 C-5.40570313 0.814375 -4.68640625 0.62875 -3.9453125 0.4375 C-2 0 -2 0 0 0 Z " fill="#232528" transform="translate(124,82)"/>
<path d="M0 0 C1.98 0.99 1.98 0.99 4 2 C4 4.64 4 7.28 4 10 C3.34 10 2.68 10 2 10 C1.34 6.7 0.68 3.4 0 0 Z " fill="#1A2227" transform="translate(121,70)"/>
<path d="M0 0 C1.65 0 3.3 0 5 0 C5 0.99 5 1.98 5 3 C2.36 3.33 -0.28 3.66 -3 4 C-2.67 3.01 -2.34 2.02 -2 1 C-1.67 1.33 -1.34 1.66 -1 2 C-0.67 1.34 -0.34 0.68 0 0 Z " fill="#3B3F43" transform="translate(156,68)"/>
<path d="M0 0 C0.33 0 0.66 0 1 0 C1 1.98 1 3.96 1 6 C1.99 5.67 2.98 5.34 4 5 C4 5.99 4 6.98 4 8 C2.68 8.99 1.36 9.98 0 11 C0 7.37 0 3.74 0 0 Z " fill="#E8ECEC" transform="translate(169,60)"/>
<path d="M0 0 C0.33 0 0.66 0 1 0 C1 3.3 1 6.6 1 10 C-0.65 10.66 -2.3 11.32 -4 12 C-3.525625 11.13375 -3.05125 10.2675 -2.5625 9.375 C-1.06765105 6.14612626 -0.41781687 3.50966174 0 0 Z " fill="#C5DFFE" transform="translate(44,84)"/>
<path d="M0 0 C1.77049689 -0.05410687 3.54146849 -0.09284119 5.3125 -0.125 C6.29863281 -0.14820312 7.28476563 -0.17140625 8.30078125 -0.1953125 C11 0 11 0 14 2 C9.38411065 3.013244 5.62927172 2.99847037 1 2 C0.67 1.34 0.34 0.68 0 0 Z " fill="#B4B6B6" transform="translate(221,85)"/>
<path d="M0 0 C1.98 0 3.96 0 6 0 C5.34 1.65 4.68 3.3 4 5 C3.01 4.67 2.02 4.34 1 4 C0.3125 1.9375 0.3125 1.9375 0 0 Z " fill="#B5D8F9" transform="translate(23,84)"/>
<path d="M0 0 C1.65 0.33 3.3 0.66 5 1 C5 2.32 5 3.64 5 5 C3.35 5 1.7 5 0 5 C0 3.33333333 0 1.66666667 0 0 Z " fill="#565A5D" transform="translate(212,82)"/>
<path d="M0 0 C0.33 0.66 0.66 1.32 1 2 C-5.4 3.23076923 -5.4 3.23076923 -8.4375 2.0625 C-8.953125 1.711875 -9.46875 1.36125 -10 1 C-3.44680851 -1.53191489 -3.44680851 -1.53191489 0 0 Z " fill="#E9EAEB" transform="translate(250,66)"/>
<path d="M0 0 C1.37562854 1.28965176 2.70766393 2.62689293 4 4 C4 4.66 4 5.32 4 6 C0.37 6 -3.26 6 -7 6 C-7 5.67 -7 5.34 -7 5 C-4.36 5 -1.72 5 1 5 C0.67 3.35 0.34 1.7 0 0 Z " fill="#2780F0" transform="translate(28,59)"/>
<path d="M0 0 C-0.33 0.99 -0.66 1.98 -1 3 C-3.64 3 -6.28 3 -9 3 C-7.14340032 -0.71319936 -3.69365381 -0.09982848 0 0 Z " fill="#F9FBF4" transform="translate(37,54)"/>
<path d="M0 0 C0.99 0.33 1.98 0.66 3 1 C3.6875 3.0625 3.6875 3.0625 4 5 C2.02 5 0.04 5 -2 5 C-2 4.34 -2 3.68 -2 3 C-1.34 3 -0.68 3 0 3 C0 2.01 0 1.02 0 0 Z " fill="#B6D7F9" transform="translate(14,77)"/>
<path d="M0 0 C1.2077558 3.62326739 0.54311128 4.64146369 -1 8 C-1.99 8 -2.98 8 -4 8 C-4.33 6.68 -4.66 5.36 -5 4 C-4.01 3.67 -3.02 3.34 -2 3 C-1.34 2.01 -0.68 1.02 0 0 Z " fill="#3282EC" transform="translate(18,67)"/>
<path d="M0 0 C0 0.33 0 0.66 0 1 C-0.78375 1.12375 -1.5675 1.2475 -2.375 1.375 C-5.14057822 1.79117993 -5.14057822 1.79117993 -7 4 C-8 5 -9 6 -10 7 C-10.1875 4.625 -10.1875 4.625 -10 2 C-6.3558226 -0.4294516 -4.28758728 -0.16179575 0 0 Z " fill="#C7CBD0" transform="translate(77,63)"/>
<path d="M0 0 C0.99 0.33 1.98 0.66 3 1 C3 1.99 3 2.98 3 4 C1.02 4 -0.96 4 -3 4 C-2.67 3.01 -2.34 2.02 -2 1 C-1.34 0.67 -0.68 0.34 0 0 Z " fill="#B1D4F5" transform="translate(36,78)"/>
<path d="M0 0 C0 0.33 0 0.66 0 1 C-2.31 1 -4.62 1 -7 1 C-7 2.65 -7 4.3 -7 6 C-7.33 6 -7.66 6 -8 6 C-8 4.35 -8 2.7 -8 1 C-8.66 0.67 -9.32 0.34 -10 0 C-6.7169902 -1.6415049 -3.57454967 -0.51888624 0 0 Z " fill="#4F5458" transform="translate(199,77)"/>
<path d="M0 0 C3.3 0 6.6 0 10 0 C10.66 1.65 11.32 3.3 12 5 C10.68 4.34 9.36 3.68 8 3 C8 2.34 8 1.68 8 1 C5.36 1 2.72 1 0 1 C0 0.67 0 0.34 0 0 Z " fill="#D1E8FA" transform="translate(21,66)"/>
<path d="M0 0 C0 0.33 0 0.66 0 1 C-3.3 1.66 -6.6 2.32 -10 3 C-9.67 2.01 -9.34 1.02 -9 0 C-5.93109813 -1.53445094 -3.29905734 -0.54984289 0 0 Z " fill="#C3DDFB" transform="translate(38,53)"/>
<path d="M0 0 C0.99 0.99 1.98 1.98 3 3 C2.34 4.32 1.68 5.64 1 7 C0.67 6.01 0.34 5.02 0 4 C-0.99 4 -1.98 4 -3 4 C-2.67 3.01 -2.34 2.02 -2 1 C-1.34 0.67 -0.68 0.34 0 0 Z " fill="#579BF1" transform="translate(38,75)"/>
<path d="M0 0 C1.98 0.495 1.98 0.495 4 1 C3.34 2.32 2.68 3.64 2 5 C1.01 4.67 0.02 4.34 -1 4 C-0.67 2.68 -0.34 1.36 0 0 Z " fill="#F4F6F8" transform="translate(74,76)"/>
<path d="M0 0 C1.98 0 3.96 0 6 0 C6.33 0.66 6.66 1.32 7 2 C6.01 3.485 6.01 3.485 5 5 C4.67 4.01 4.34 3.02 4 2 C2.68 2 1.36 2 0 2 C0 1.34 0 0.68 0 0 Z " fill="#3B4043" transform="translate(246,68)"/>
<path d="M0 0 C0.99 0.33 1.98 0.66 3 1 C3.33 2.65 3.66 4.3 4 6 C1.525 5.01 1.525 5.01 -1 4 C-0.67 2.68 -0.34 1.36 0 0 Z " fill="#DCECFB" transform="translate(8,66)"/>
<path d="M0 0 C2.125 0.375 2.125 0.375 4 1 C4 1.66 4 2.32 4 3 C3.34 3 2.68 3 2 3 C1.67 3.99 1.34 4.98 1 6 C0.34 5.67 -0.32 5.34 -1 5 C-0.67 4.34 -0.34 3.68 0 3 C-0.66 2.67 -1.32 2.34 -2 2 C-1.34 1.34 -0.68 0.68 0 0 Z " fill="#626568" transform="translate(174,66)"/>
<path d="M0 0 C2.64 0.66 5.28 1.32 8 2 C8 2.33 8 2.66 8 3 C3.6835078 3.76173392 0.25566547 4.16063604 -4 3 C-2.68 2.67 -1.36 2.34 0 2 C0 1.34 0 0.68 0 0 Z " fill="#EEF0F1" transform="translate(103,65)"/>
<path d="M0 0 C0 0.99 0 1.98 0 3 C-2.97 3 -5.94 3 -9 3 C-5.92807025 0.26939578 -4.09590633 -0.34132553 0 0 Z " fill="#E7EAEC" transform="translate(232,65)"/>
</svg>
